<svg width="32" height="32" viewBox="0 0 48 48" fill="none" xmlns="http://www.w3.org/2000/svg">
    <!-- White background with rounded corners -->
    <rect width="48" height="48" rx="8" fill="white"/>
    
    <!-- Outer rounded square -->
    <path d="M35.9912 4.79883H11.9971C8.02159 4.79883 4.79883 8.02159 4.79883 11.9971V35.9912C4.79883 39.9667 8.02159 43.1894 11.9971 43.1894H35.9912C39.9667 43.1894 43.1894 39.9667 43.1894 35.9912V11.9971C43.1894 8.02159 39.9667 4.79883 35.9912 4.79883Z" stroke="#1E3A8F" stroke-width="2.8793" />
    
    <!-- Inner certificate rectangle -->
    <path d="M34.0717 10.7974H13.9166C12.8565 10.7974 11.9971 11.6568 11.9971 12.7169V26.8734C11.9971 27.9336 12.8565 28.793 13.9166 28.793H34.0717C35.1318 28.793 35.9912 27.9336 35.9912 26.8734V12.7169C35.9912 11.6568 35.1318 10.7974 34.0717 10.7974Z" stroke="#1E3A8F" stroke-width="1.91953" />
    
    <!-- Lines on certificate -->
    <path d="M15.5962 15.5962H25.1938" stroke="#1E3A8F" stroke-width="1.43965" stroke-linecap="round" />
    <path d="M15.5962 19.1953H22.7944" stroke="#1E3A8F" stroke-width="1.43965" stroke-linecap="round" />
    
    <!-- Seal circle -->
    <path d="M17.9957 39.1105C20.381 39.1105 22.3146 37.1769 22.3146 34.7916C22.3146 32.4063 20.381 30.4727 17.9957 30.4727C15.6104 30.4727 13.6768 32.4063 13.6768 34.7916C13.6768 37.1769 15.6104 39.1105 17.9957 39.1105Z" fill="#1E3A8F" />
    <path d="M17.9955 30.4727L16.3159 37.191L17.9955 35.9913L19.6751 37.191L17.9955 30.4727Z" fill="#1E3A8F" />
    
    <!-- QR code squares -->
    <path d="M28.0738 20.395H25.1938V23.275H28.0738V20.395Z" fill="#1E3A8F" />
    <path d="M32.3927 20.395H29.5127V23.275H32.3927V20.395Z" fill="#1E3A8F" />
    <path d="M28.0738 24.7139H25.1938V27.5939H28.0738V24.7139Z" fill="#1E3A8F" />
    <path d="M32.3927 24.7139H29.5127V27.5939H32.3927V24.7139Z" fill="#1E3A8F" />
</svg>
